<svg xmlns="http://www.w3.org/2000/svg" viewBox="0 0 200 200" width="200" height="200">
  <rect width="200" height="200" rx="24" fill="#1a1a2e"/>
  <!-- Body -->
  <ellipse cx="105" cy="120" rx="45" ry="35" fill="#8b7355"/>
  <!-- Head -->
  <circle cx="70" cy="100" r="28" fill="#8b7355"/>
  <!-- Ears -->
  <circle cx="55" cy="75" r="14" fill="#c9a87c"/>
  <circle cx="55" cy="75" r="9" fill="#e8b4b8"/>
  <circle cx="80" cy="70" r="12" fill="#c9a87c"/>
  <circle cx="80" cy="70" r="7" fill="#e8b4b8"/>
  <!-- Eyes -->
  <circle cx="62" cy="97" r="6" fill="#1a1a2e"/>
  <circle cx="62" cy="97" r="4" fill="#e8b4b8"/>
  <circle cx="63" cy="96" r="1.5" fill="white"/>
  <!-- Nose -->
  <ellipse cx="48" cy="104" rx="5" ry="4" fill="#c9a87c"/>
  <circle cx="48" cy="103" r="2.5" fill="#e8b4b8"/>
  <!-- Whiskers -->
  <line x1="43" y1="101" x2="22" y2="95" stroke="#c9a87c" stroke-width="1.2" stroke-linecap="round"/>
  <line x1="43" y1="104" x2="20" y2="104" stroke="#c9a87c" stroke-width="1.2" stroke-linecap="round"/>
  <line x1="43" y1="107" x2="22" y2="113" stroke="#c9a87c" stroke-width="1.2" stroke-linecap="round"/>
  <line x1="53" y1="101" x2="62" y2="90" stroke="#c9a87c" stroke-width="1" stroke-linecap="round" opacity="0.5"/>
  <!-- Tail -->
  <path d="M148 130 Q175 120 178 140 Q180 158 165 155" fill="none" stroke="#c9a87c" stroke-width="4" stroke-linecap="round"/>
  <!-- Feet -->
  <ellipse cx="85" cy="150" rx="12" ry="7" fill="#6b5a3e"/>
  <ellipse cx="110" cy="152" rx="12" ry="7" fill="#6b5a3e"/>
  <ellipse cx="130" cy="148" rx="12" ry="7" fill="#6b5a3e"/>
  <!-- Cheese (small) -->
  <polygon points="155,75 175,75 165,55" fill="#f4c430"/>
  <polygon points="155,75 175,75 165,55" fill="none" stroke="#e6b800" stroke-width="1"/>
  <circle cx="163" cy="70" r="3" fill="#e6a800" opacity="0.7"/>
  <circle cx="170" cy="73" r="2" fill="#e6a800" opacity="0.7"/>
</svg>