<svg xmlns="http://www.w3.org/2000/svg" viewBox="0 0 24 24" width="24" height="24" role="img" aria-hidden="true">
  <circle cx="12" cy="12" r="12" fill="#ffffff"/>
  <path fill="#e53935" d="M12 4.2c-2.35 0-4.25 1.75-4.25 3.9v2.95L6.4 13.5a.85.85 0 0 0 .75 1.25h9.7a.85.85 0 0 0 .75-1.25l-1.35-2.45V8.1c0-2.15-1.9-3.9-4.25-3.9Z"/>
  <path fill="#ffcdd2" d="M9.8 17.6a2.2 2.2 0 0 0 4.4 0H9.8Z"/>
  <path fill="#e53935" d="M12 3.5c.35 0 .65.28.65.62v.55a.65.65 0 1 1-1.3 0v-.55c0-.34.3-.62.65-.62Z"/>
</svg>
