<?xml version="1.0" standalone="no"?>
<!DOCTYPE svg PUBLIC "-//W3C//DTD SVG 20010904//EN"
 "http://www.w3.org/TR/2001/REC-SVG-20010904/DTD/svg10.dtd">
<svg version="1.0" xmlns="http://www.w3.org/2000/svg"
 width="488.000000pt" height="512.000000pt" viewBox="0 0 488.000000 512.000000"
 preserveAspectRatio="xMidYMid meet">

<g transform="translate(0.000000,512.000000) scale(0.100000,-0.100000)"
fill="#000000" stroke="none">
<path d="M1775 3521 c-322 -100 -461 -216 -473 -395 -9 -138 50 -261 277 -586
211 -301 261 -387 301 -519 18 -58 22 -89 18 -157 -2 -46 -3 -84 -2 -84 15 0
168 62 235 95 113 55 166 93 222 155 81 90 96 193 47 322 -27 72 -117 207
-245 368 -110 138 -212 285 -249 357 -78 155 -90 307 -36 430 22 51 24 51 -95
14z"/>
<path d="M1990 3524 c-17 -42 -12 -51 48 -98 160 -122 271 -287 343 -506 15
-46 31 -86 36 -87 5 -2 23 10 40 27 51 50 78 178 89 424 l7 152 -62 27 c-112
49 -302 87 -432 87 -55 0 -60 -2 -69 -26z"/>
<path d="M3004 2719 c-169 -9 -240 -24 -258 -52 -7 -12 -28 -139 -45 -282 -30
-235 -72 -522 -87 -582 l-6 -23 204 0 c192 0 206 1 223 20 14 16 23 64 41 227
13 115 35 309 49 433 15 124 27 234 28 244 1 10 -2 20 -8 21 -5 1 -69 -1 -141
-6z"/>
<path d="M3292 2711 c-83 -21 -76 -16 -90 -57 -9 -30 -8 -32 23 -47 67 -32 70
-112 16 -411 -35 -188 -40 -325 -17 -381 l15 -35 188 0 189 0 43 44 c27 27 39
46 32 51 -6 3 -20 24 -31 45 -26 52 -26 170 0 345 54 362 7 466 -212 464 -46
0 -116 -9 -156 -18z"/>
<path d="M1306 2470 c-30 -27 -37 -43 -56 -122 -26 -109 -47 -433 -29 -454 15
-18 160 -69 253 -88 43 -9 124 -19 179 -23 90 -6 101 -4 113 12 15 21 19 75 6
75 -5 0 -43 29 -84 64 -136 116 -254 302 -310 488 -13 43 -26 78 -30 78 -4 0
-23 -14 -42 -30z"/>
</g>
</svg>
