<svg xmlns="http://www.w3.org/2000/svg" viewBox="0 0 200 200" width="200" height="200">
  <rect width="200" height="200" rx="24" fill="#1a1a2e"/>
  <!-- Keyboard body -->
  <rect x="20" y="80" width="160" height="90" rx="12" fill="#16213e"/>
  <rect x="20" y="80" width="160" height="90" rx="12" fill="none" stroke="#4f98a3" stroke-width="2"/>
  <!-- Row 1 keys -->
  <rect x="30" y="90" width="18" height="16" rx="4" fill="#0f3460"/>
  <rect x="52" y="90" width="18" height="16" rx="4" fill="#0f3460"/>
  <rect x="74" y="90" width="18" height="16" rx="4" fill="#0f3460"/>
  <rect x="96" y="90" width="18" height="16" rx="4" fill="#0f3460"/>
  <rect x="118" y="90" width="18" height="16" rx="4" fill="#0f3460"/>
  <rect x="140" y="90" width="18" height="16" rx="4" fill="#4f98a3"/>
  <!-- Row 2 keys -->
  <rect x="35" y="112" width="18" height="16" rx="4" fill="#0f3460"/>
  <rect x="57" y="112" width="18" height="16" rx="4" fill="#4f98a3"/>
  <rect x="79" y="112" width="18" height="16" rx="4" fill="#0f3460"/>
  <rect x="101" y="112" width="18" height="16" rx="4" fill="#0f3460"/>
  <rect x="123" y="112" width="30" height="16" rx="4" fill="#0f3460"/>
  <!-- Spacebar -->
  <rect x="50" y="134" width="100" height="16" rx="4" fill="#0f3460"/>
  <!-- Cursor blinking line -->
  <rect x="90" y="44" width="3" height="22" rx="2" fill="#4f98a3" opacity="0.9"/>
  <!-- Text lines -->
  <rect x="30" y="48" width="55" height="4" rx="2" fill="#4f98a3" opacity="0.6"/>
  <rect x="30" y="56" width="40" height="4" rx="2" fill="#4f98a3" opacity="0.3"/>
  <!-- Glow effect -->
  <rect x="138" y="88" width="22" height="20" rx="5" fill="#4f98a3" opacity="0.15"/>
  <rect x="55" y="110" width="22" height="20" rx="5" fill="#4f98a3" opacity="0.15"/>
</svg>